<?xml version="1.0" encoding="utf-8"?>
<!-- Generator: Adobe Illustrator 21.1.0, SVG Export Plug-In . SVG Version: 6.00 Build 0)  -->
<svg version="1.1" id="Calque_1" xmlns="http://www.w3.org/2000/svg" xmlns:xlink="http://www.w3.org/1999/xlink" x="0px" y="0px"
	 viewBox="0 0 800 300" style="enable-background:new 0 0 800 300;" xml:space="preserve">
<style type="text/css">
	.st0{fill:#FFFFFF;}
</style>
<g>
	<path class="st0" d="M257.5,294.4c0-95.7,0-191.3,0-287.1c95.6,0,191.3,0,287,0c0,95.7,0,191.4,0,287.1
		C448.9,294.4,353.2,294.4,257.5,294.4z M452,208.9c1.2,0.3,2.1,0.6,3.1,0.9c10.2,3,20.5,6.2,30.8,9c4,1.1,7,3.1,9,6.5
		c1.6,2.7,3,5.6,4.1,8.5c3.3,9.2,4.5,18.8,4.5,28.5c0,3.4,1.6,5.3,4.4,5.2c2.8,0,4.5-1.9,4.3-5.3c-0.4-5.7-0.7-11.3-1.7-16.9
		c-1.6-9.4-4.3-18.5-10-26.4c-2.8-4-6.4-6.9-11.2-8.3c-15.1-4.5-30.3-8.9-45.4-13.6c-4.1-1.3-7.5-0.6-10.7,1.8
		c-3.7,2.7-5.5,6.4-5.2,10.5c-3.7,1.9-7,3.6-10.6,5.4c-7.8-6.8-16-6.7-23.8,0.2c-3-1.8-5.8-3.4-8.6-5c0.7-8.3-8-16-18-12.6
		c-13.7,4.7-27.6,8.8-41.7,12.3c-8.9,2.2-14.6,7.2-18.6,15c-6.2,12.3-8.5,25.5-8.8,39.1c-0.1,2.9,1.9,4.8,4.3,4.8
		c2.4,0,4.2-2,4.4-4.8c0.3-4.9,0.5-9.9,1.2-14.7c1.1-8,3.1-15.7,7.3-22.7c2.1-3.5,4.9-6.2,9.1-7.3c6.7-1.8,13.4-3.7,20.1-5.6
		c5.4-1.6,10.8-3.2,16.5-4.9c0.7,5.5,3.9,8.9,8.5,11.2c-1.9,6.5,0,11.7,5.1,15.7c5.2,4.1,10.8,4,16.2,0.5c7.5,9.9,19.7,12.5,29.8,0
		c5.3,3.4,10.6,3.7,15.8-0.2c5.1-3.9,7.3-9,5.7-15.5C447.3,218.4,450.8,214.7,452,208.9z M404.1,30.7c-12.7-0.1-23.2,11-22.5,24
		c0.1,2.1-0.4,3.1-2.4,4c-6.8,3-12.5,7.6-17.1,13.6c-7.8,10.2-11.4,22-13.2,34.5c-0.5,3.8,1.2,5.9,5,6c13.7,0.6,27.3,0,40.9-2.3
		c13.1-2.2,25.8-5.6,36.9-13.3c1.8-1.2,2.7-1,4.2,0.3c5.1,4.5,11.1,7.5,17.5,9.5c4.4,1.4,7.6-1.6,6.5-6c-1.1-4.3-2.2-8.7-3.7-12.8
		c-5-13.5-13-24.5-26.7-30.2c-2.3-1-2.9-2.1-2.9-4.5C426.8,41.2,416.4,30.8,404.1,30.7z M456.9,124.7c0.3,0.1,0.5,0.2,0.8,0.3
		c-1.6,3.8-3.2,7.7-5,11.5c-1.1,2.3-2.9,3.5-5.8,3.3c-3.5-0.3-5.7,2.8-4.3,5.9c1.8,4,1.3,8-0.4,11.6c-4.5,9.8-9.7,19.4-17.8,26.7
		c-3.1,2.8-6.9,5.2-10.9,6.4c-9.6,2.8-18.4,0.2-26-6.1c-8.5-7-14.5-15.7-18.1-26c-1.4-4.1-2.2-8.2-0.7-12.5c1.3-3.6-0.8-6.2-4.7-6.1
		c-1.1,0-2.3,0-3.2-0.6c-2.8-1.7-6.6-10.6-6.4-13.7c1.7,0.6,3.4,1.5,5.3,1.8c2.1,0.3,3.9-0.9,4.1-2.9c0.2-1.5-0.4-3.7-1.5-4.6
		c-1.8-1.5-4.1-2.7-6.3-3.3c-6.7-2-12.1,2.9-10.7,9.8c1.4,6.7,4.3,12.9,8.9,18.1c1.6,1.8,4.8,8.2,5.3,10.5
		c3.7,16.9,12.8,30.2,27.3,39.6c14.3,9.2,30.5,7.7,43.2-3.7c9.4-8.5,15.7-19.3,20.5-30.9c1.3-3.1,1.3-6.7,1.9-10.1
		c0.2-0.8,0.4-1.9,1-2.3c7.5-5.4,10.6-13.2,12.6-21.7c1.2-5.2-3.8-10.7-8.9-9.7c-2.9,0.6-5.7,2.2-8.2,3.7c-2,1.2-2.3,3.4-1.1,5.4
		c1.2,2.1,3.3,2.8,5.5,1.8C454.5,126.4,455.7,125.5,456.9,124.7z M387,141.3C387,141.3,387,141.3,387,141.3c0.7,0,1.5,0,2.2,0
		c0.8,0,1.7,0.1,2.5,0c2.4-0.2,4.2-2.1,4.2-4.4c0-2.2-1.8-4.2-4.3-4.3c-3.1-0.1-6.1-0.1-9.2,0c-2.5,0.1-4.2,2.1-4.2,4.3
		c0,2.3,1.8,4.1,4.2,4.3C384,141.3,385.5,141.3,387,141.3z M422.8,141.3C422.8,141.3,422.8,141.3,422.8,141.3c1.6,0,3.2,0.1,4.7,0
		c2.5-0.2,4.2-2.1,4.2-4.4c0-2.3-1.8-4.2-4.3-4.3c-3-0.1-5.9-0.1-8.9,0c-2.6,0.1-4.5,2-4.5,4.4c0,2.4,1.9,4.2,4.6,4.3
		C420,141.3,421.4,141.3,422.8,141.3z"/>
	<path d="M452,208.9c-1.2,5.8-4.6,9.5-10.2,11.4c1.7,6.6-0.5,11.7-5.7,15.5c-5.1,3.9-10.5,3.6-15.8,0.2c-10.1,12.5-22.3,9.9-29.8,0
		c-5.5,3.5-11,3.7-16.2-0.5c-5.1-4-6.9-9.3-5.1-15.7c-4.6-2.3-7.8-5.7-8.5-11.2c-5.7,1.7-11.1,3.3-16.5,4.9
		c-6.7,1.9-13.4,3.9-20.1,5.6c-4.2,1.1-6.9,3.8-9.1,7.3c-4.2,7-6.2,14.7-7.3,22.7c-0.7,4.9-0.8,9.8-1.2,14.7
		c-0.2,2.8-1.9,4.8-4.4,4.8c-2.5,0-4.4-1.9-4.3-4.8c0.3-13.6,2.6-26.8,8.8-39.1c3.9-7.8,9.7-12.8,18.6-15c14-3.5,28-7.7,41.7-12.3
		c10-3.4,18.6,4.2,18,12.6c2.8,1.6,5.6,3.3,8.6,5c7.8-6.8,16-6.9,23.8-0.2c3.6-1.8,7-3.5,10.6-5.4c-0.3-4,1.6-7.7,5.2-10.5
		c3.2-2.4,6.7-3.1,10.7-1.8c15.1,4.7,30.2,9.2,45.4,13.6c4.8,1.4,8.4,4.3,11.2,8.3c5.7,7.9,8.4,17,10,26.4c1,5.6,1.3,11.3,1.7,16.9
		c0.2,3.4-1.5,5.3-4.3,5.3c-2.8,0-4.4-1.8-4.4-5.2c-0.1-9.7-1.3-19.3-4.5-28.5c-1-3-2.5-5.8-4.1-8.5c-2-3.4-5-5.4-9-6.5
		c-10.3-2.8-20.5-6-30.8-9C454.1,209.5,453.1,209.3,452,208.9z M414,227.1c0-5.2-3.3-8.6-8.5-8.6c-5.5,0-8.7,3.3-8.7,9
		c0,5,3.4,8.3,8.5,8.3C410.7,235.8,414,232.5,414,227.1z M382.6,229.9c3.6,0,5.5-1.8,5.5-5.5c0-3.4-2-5.4-5.4-5.4
		c-3.6,0-5.6,1.9-5.7,5.4C377,227.9,379,229.9,382.6,229.9z M433.6,224.6c0-3.7-1.8-5.6-5.4-5.6c-3.6,0-5.5,1.9-5.5,5.5
		c0,3.6,1.9,5.4,5.6,5.4C431.8,229.9,433.6,228.1,433.6,224.6z M376,208.4c0.1-2.3-1.1-3.3-3.2-3.2c-2.2,0.1-3.3,1.1-3.2,3.5
		c0.1,2.3,1.4,3.1,3.4,3C375.1,211.6,376.2,210.5,376,208.4z M443,208.3c0.3-2.6-1.7-3-3.5-3.1c-2.2-0.2-2.8,1.2-2.8,3.2
		c0,2.3,1.1,3.2,3.2,3.2C441.9,211.6,443.2,210.7,443,208.3z"/>
	<path d="M404.1,30.7c12.4,0.1,22.7,10.4,22.6,22.9c0,2.4,0.6,3.5,2.9,4.5c13.7,5.7,21.7,16.7,26.7,30.2c1.5,4.2,2.6,8.5,3.7,12.8
		c1.1,4.4-2.1,7.3-6.5,6c-6.4-2-12.4-5-17.5-9.5c-1.5-1.3-2.5-1.5-4.2-0.3c-11.1,7.7-23.8,11.1-36.9,13.3
		c-13.5,2.3-27.2,2.9-40.9,2.3c-3.8-0.2-5.5-2.2-5-6c1.7-12.5,5.3-24.3,13.2-34.5c4.6-5.9,10.2-10.5,17.1-13.6
		c1.9-0.9,2.5-1.8,2.4-4C380.9,41.8,391.4,30.7,404.1,30.7z M449.9,96.5c-0.9-2.9-1.6-5-2.4-7.2c-5.2-13.9-14.3-23.3-29.4-26
		c-8.5-1.6-17-1.7-25.5-0.2c-18.8,3.3-34.3,21.8-34,40.9c0.2,0.1,0.5,0.3,0.7,0.3c0.6,0.1,1.3,0.1,1.9,0.1c13.5,0,26.9-1,40.2-4
		c10.5-2.4,20.6-5.8,28.9-13c3.8-3.3,5.7-3.1,8.7,0.8C441.7,91.8,445.3,94.2,449.9,96.5z M390.5,54.1c9.2,0,18.2,0,27.2,0
		c0.8-5.3-1.5-10.2-5.9-12.8c-4.9-2.9-12.5-2.5-16.9,1C391.3,45.2,389.4,50.4,390.5,54.1z"/>
	<path d="M456.9,124.7c-1.2,0.8-2.4,1.7-3.7,2.3c-2.3,1-4.3,0.3-5.5-1.8c-1.2-2-0.9-4.2,1.1-5.4c2.6-1.6,5.3-3.1,8.2-3.7
		c5.1-1,10.1,4.5,8.9,9.7c-1.9,8.5-5.1,16.3-12.6,21.7c-0.6,0.4-0.8,1.5-1,2.3c-0.6,3.4-0.6,7-1.9,10.1
		c-4.8,11.6-11.1,22.3-20.5,30.9c-12.6,11.4-28.9,12.9-43.2,3.7c-14.5-9.4-23.6-22.7-27.3-39.6c-0.5-2.3-3.7-8.7-5.3-10.5
		c-4.6-5.2-7.5-11.4-8.9-18.1c-1.5-6.8,4-11.8,10.7-9.8c2.3,0.7,4.6,1.8,6.3,3.3c1.1,0.9,1.7,3.1,1.5,4.6c-0.2,2-2.1,3.2-4.1,2.9
		c-1.8-0.3-3.6-1.2-5.3-1.8c-0.3,3.1,3.6,12,6.4,13.7c0.9,0.5,2.1,0.6,3.2,0.6c3.9-0.1,5.9,2.5,4.7,6.1c-1.5,4.3-0.7,8.5,0.7,12.5
		c3.7,10.3,9.6,19,18.1,26c7.7,6.3,16.4,8.9,26,6.1c3.9-1.2,7.8-3.6,10.9-6.4c8.2-7.3,13.3-16.9,17.8-26.7c1.7-3.7,2.2-7.6,0.4-11.6
		c-1.4-3.2,0.8-6.2,4.3-5.9c2.9,0.3,4.7-1,5.8-3.3c1.8-3.8,3.3-7.7,5-11.5C457.4,124.9,457.2,124.8,456.9,124.7z"/>
	<path d="M387,141.3c-1.5,0-3,0.1-4.5,0c-2.5-0.2-4.2-2.1-4.2-4.3c0-2.3,1.8-4.2,4.2-4.3c3.1-0.1,6.1-0.1,9.2,0
		c2.5,0.1,4.2,2.1,4.3,4.3c0,2.2-1.8,4.1-4.2,4.4c-0.8,0.1-1.7,0-2.5,0C388.5,141.3,387.7,141.3,387,141.3
		C387,141.3,387,141.3,387,141.3z"/>
	<path d="M422.8,141.3c-1.4,0-2.8,0.1-4.2,0c-2.7-0.1-4.5-1.9-4.6-4.3c0-2.4,1.8-4.3,4.5-4.4c3-0.1,5.9-0.1,8.9,0
		c2.5,0.1,4.3,2,4.3,4.3c0,2.3-1.7,4.2-4.2,4.4C425.9,141.4,424.3,141.2,422.8,141.3C422.8,141.3,422.8,141.3,422.8,141.3z"/>
	<path class="st0" d="M414,227.1c0,5.4-3.3,8.7-8.7,8.7c-5.1,0-8.5-3.3-8.5-8.3c0-5.7,3.2-9,8.7-9C410.7,218.5,414,221.9,414,227.1z
		"/>
	<path class="st0" d="M382.6,229.9c-3.6,0-5.6-2-5.5-5.5c0.1-3.5,2.1-5.5,5.7-5.4c3.4,0,5.4,2,5.4,5.4
		C388.1,228.1,386.3,229.9,382.6,229.9z"/>
	<path class="st0" d="M433.6,224.6c0,3.5-1.8,5.3-5.3,5.4c-3.7,0-5.6-1.8-5.6-5.4c0-3.6,1.9-5.5,5.5-5.5
		C431.8,219,433.6,220.8,433.6,224.6z"/>
	<path class="st0" d="M376,208.4c0.2,2.1-0.9,3.2-3,3.3c-2,0.1-3.3-0.7-3.4-3c-0.1-2.4,1-3.4,3.2-3.5
		C374.9,205.1,376.1,206.1,376,208.4z"/>
	<path class="st0" d="M443,208.3c0.1,2.4-1.1,3.3-3.2,3.3c-2.1,0-3.2-1-3.2-3.2c0-2,0.7-3.4,2.8-3.2
		C441.4,205.4,443.3,205.7,443,208.3z"/>
	<path class="st0" d="M449.9,96.5c-4.6-2.3-8.2-4.7-10.8-8.3c-3-3.9-5-4.1-8.7-0.8c-8.3,7.2-18.4,10.7-28.9,13
		c-13.2,3-26.6,3.9-40.2,4c-0.6,0-1.3,0-1.9-0.1c-0.3,0-0.5-0.2-0.7-0.3c-0.3-19,15.2-37.6,34-40.9c8.5-1.5,17-1.4,25.5,0.2
		c15,2.7,24.2,12.1,29.4,26C448.3,91.5,448.9,93.7,449.9,96.5z"/>
	<path class="st0" d="M390.5,54.1c-1-3.7,0.8-9,4.5-11.9c4.3-3.4,12-3.9,16.9-1c4.4,2.6,6.7,7.5,5.9,12.8
		C408.7,54.1,399.6,54.1,390.5,54.1z"/>
</g>
</svg>
